<svg xmlns="http://www.w3.org/2000/svg" xmlns:xlink="http://www.w3.org/1999/xlink" width="440" zoomAndPan="magnify" viewBox="0 0 330 143.999998" height="192" preserveAspectRatio="xMidYMid meet" version="1.0"><defs><g/><clipPath id="0ae830fc51"><path d="M 0.203125 1.929688 L 324.554688 1.929688 L 324.554688 121.476562 L 0.203125 121.476562 Z M 0.203125 1.929688 " clip-rule="nonzero"/></clipPath><clipPath id="28a83eac1e"><path d="M 243 77.710938 L 309 77.710938 L 309 143.675781 L 243 143.675781 Z M 243 77.710938 " clip-rule="nonzero"/></clipPath><clipPath id="22d42511ec"><path d="M 31 77.710938 L 97 77.710938 L 97 143.675781 L 31 143.675781 Z M 31 77.710938 " clip-rule="nonzero"/></clipPath></defs><path fill="#ff9e1d" d="M 102.484375 113.058594 L 22.804688 113.058594 C 22.804688 113.058594 31.535156 75.039062 62.644531 75.039062 C 93.757812 75.039062 101.117188 104.566406 102.484375 113.058594 " fill-opacity="1" fill-rule="nonzero"/><path fill="#ff9e1d" d="M 315.097656 109.050781 L 235.421875 109.050781 C 235.421875 109.050781 244.152344 71.910156 275.261719 71.910156 C 306.371094 71.910156 313.734375 100.753906 315.097656 109.050781 " fill-opacity="1" fill-rule="nonzero"/><g clip-path="url(#0ae830fc51)"><path fill="#ffcc29" d="M 11.84375 61.953125 C 14.980469 59.605469 34.859375 49.917969 41.398438 48.742188 C 47.9375 47.570312 83.902344 42.21875 85.210938 41.308594 C 86.515625 40.394531 147.898438 5.269531 158.574219 2.6875 C 167.207031 0.597656 248.492188 3.46875 253.722656 3.730469 C 258.953125 3.992188 289.8125 8.703125 290.773438 9.140625 C 291.734375 9.574219 290.773438 13.402344 289.554688 14.097656 C 289.554688 14.097656 309.3125 36.347656 312.277344 41.046875 C 313.273438 42.625 316.160156 53.496094 318.429688 62.503906 C 317.925781 63.679688 317.40625 65.066406 317.480469 65.667969 C 317.621094 66.792969 319.03125 78.75 319.878906 79.316406 C 320.660156 79.835938 322.359375 80.730469 323.921875 80.625 C 324.039062 80.945312 324.132812 81.21875 324.140625 81.363281 C 324.183594 82.234375 324.796875 95.671875 324.449219 96.542969 C 324.097656 97.410156 322.136719 100.585938 321.699219 101.109375 C 321.265625 101.628906 319.910156 111.328125 318.644531 111.460938 C 317.378906 111.589844 312.527344 111.675781 312.3125 111.460938 C 312.09375 111.242188 310.742188 75.359375 275.300781 75.359375 C 239.859375 75.359375 240.25 113.460938 239.597656 113.589844 C 238.945312 113.722656 98.941406 117.332031 98.941406 117.332031 C 98.941406 111.503906 98.402344 75.050781 63.636719 75.050781 C 40.988281 75.050781 29.628906 95.421875 29.238281 109.15625 C 29.074219 114.871094 30.035156 121.15625 29.714844 121.15625 C 28.667969 121.15625 25.09375 121.417969 24.484375 121.15625 C 23.875 120.898438 16.464844 116.027344 15.851562 115.851562 C 15.242188 115.679688 13.457031 115.589844 12.410156 115.332031 C 11.363281 115.070312 4.039062 108.675781 3.910156 108.414062 C 3.777344 108.15625 3.558594 105.632812 3.515625 105.414062 C 3.472656 105.195312 1.027344 96.152344 0.679688 95.152344 C 0.332031 94.148438 0.203125 85.886719 0.203125 85.058594 C 0.203125 84.234375 8.703125 64.300781 11.84375 61.953125 " fill-opacity="1" fill-rule="nonzero"/></g><path fill="#484a49" d="M 280.648438 34.5625 C 280.125 36.449219 253.113281 40.421875 199.625 42.902344 C 146.136719 45.378906 119.71875 46.695312 119.066406 46.4375 C 118.414062 46.175781 120.898438 31.953125 121.8125 30.777344 C 122.726562 29.605469 161.046875 10.03125 167.0625 9.511719 C 173.078125 8.988281 205.574219 9.289062 221.988281 9.183594 C 242.320312 9.054688 253.96875 11.402344 259.789062 13.75 C 264.910156 15.816406 281.171875 32.671875 280.648438 34.5625 " fill-opacity="1" fill-rule="nonzero"/><path fill="#ffffff" d="M 37.613281 60.191406 C 36.484375 63.019531 25.980469 69.300781 21.902344 70.65625 C 19.339844 71.507812 10.300781 73.484375 9.695312 73.058594 C 9.085938 72.636719 12.519531 65.558594 14.5625 63.652344 C 16.605469 61.746094 27.390625 56.019531 30.863281 55.667969 C 34.332031 55.320312 38.753906 57.339844 37.613281 60.191406 " fill-opacity="1" fill-rule="nonzero"/><g clip-path="url(#28a83eac1e)"><path fill="#484a49" d="M 243 110.796875 C 243 128.957031 257.753906 143.675781 275.957031 143.675781 C 294.15625 143.675781 308.910156 128.957031 308.910156 110.796875 C 308.910156 92.636719 294.15625 77.917969 275.957031 77.917969 C 257.753906 77.917969 243 92.636719 243 110.796875 " fill-opacity="1" fill-rule="nonzero"/></g><path fill="#8a8e8f" d="M 254.511719 110.796875 C 254.511719 122.609375 264.113281 132.1875 275.957031 132.1875 C 287.796875 132.1875 297.394531 122.609375 297.394531 110.796875 C 297.394531 98.980469 287.796875 89.402344 275.957031 89.402344 C 264.113281 89.402344 254.511719 98.980469 254.511719 110.796875 " fill-opacity="1" fill-rule="nonzero"/><path fill="#484a49" d="M 256.183594 110.796875 C 256.183594 121.691406 265.035156 130.523438 275.957031 130.523438 C 286.875 130.523438 295.726562 121.691406 295.726562 110.796875 C 295.726562 99.902344 286.875 91.070312 275.957031 91.070312 C 265.035156 91.070312 256.183594 99.902344 256.183594 110.796875 " fill-opacity="1" fill-rule="nonzero"/><path fill="#8a8e8f" d="M 271.34375 111.898438 C 269.484375 109.464844 259.246094 112.523438 259.246094 112.523438 L 259.21875 109.667969 C 262.730469 108.902344 263.875 108.324219 264.335938 106.914062 C 264.792969 105.503906 264.207031 104.363281 261.816406 101.691406 L 263.523438 99.394531 C 263.523438 99.394531 270.003906 107.871094 272.9375 106.992188 L 272.929688 107.023438 C 273.074219 106.902344 273.21875 106.78125 273.375 106.679688 L 273.371094 106.679688 C 275.117188 104.167969 269.039062 95.394531 269.039062 95.394531 L 271.75 94.488281 C 273.5625 97.585938 274.46875 98.492188 275.957031 98.492188 C 277.441406 98.492188 278.347656 97.585938 280.15625 94.488281 L 282.871094 95.394531 C 282.871094 95.394531 276.796875 104.167969 278.539062 106.679688 L 278.53125 106.679688 C 278.691406 106.78125 278.835938 106.902344 278.984375 107.023438 L 278.972656 106.992188 C 281.90625 107.871094 288.386719 99.394531 288.386719 99.394531 L 290.089844 101.6875 C 287.703125 104.363281 287.117188 105.503906 287.574219 106.914062 C 288.035156 108.324219 289.179688 108.902344 292.6875 109.664062 L 292.664062 112.523438 C 292.664062 112.523438 282.425781 109.464844 280.566406 111.898438 L 280.5625 111.875 C 280.511719 112.058594 280.460938 112.238281 280.394531 112.410156 L 280.402344 112.402344 C 280.472656 115.460938 290.558594 118.992188 290.558594 118.992188 L 288.898438 121.316406 C 285.605469 119.875 284.339844 119.671875 283.136719 120.542969 C 281.933594 121.414062 281.738281 122.679688 282.097656 126.246094 L 279.363281 127.105469 C 279.363281 127.105469 279.113281 116.445312 276.222656 115.433594 L 276.246094 115.417969 C 276.148438 115.421875 276.054688 115.445312 275.957031 115.445312 C 275.855469 115.445312 275.761719 115.421875 275.664062 115.417969 L 275.6875 115.433594 C 272.796875 116.445312 272.546875 127.105469 272.546875 127.105469 L 269.816406 126.246094 C 270.175781 122.679688 269.980469 121.414062 268.773438 120.542969 C 267.570312 119.671875 266.304688 119.875 263.015625 121.320312 L 261.351562 118.992188 C 261.351562 118.992188 271.4375 115.460938 271.507812 112.402344 L 271.511719 112.410156 C 271.445312 112.238281 271.394531 112.058594 271.347656 111.878906 L 271.34375 111.898438 " fill-opacity="1" fill-rule="nonzero"/><path fill="#ffc800" d="M 129.460938 31.445312 C 130.664062 32.644531 130.554688 43.386719 129.679688 44.257812 C 128.804688 45.132812 116.835938 45.914062 115.875 39.246094 C 114.914062 32.578125 127.582031 29.570312 129.460938 31.445312 " fill-opacity="1" fill-rule="nonzero"/><path fill="#484a49" d="M 83.84375 41.710938 L 93.558594 41.710938 C 118.84375 25.066406 153.546875 8.601562 153.546875 8.601562 L 147.789062 7.210938 C 126.78125 17.359375 86.273438 40.5625 85.210938 41.308594 C 85.078125 41.402344 84.605469 41.535156 83.84375 41.710938 " fill-opacity="1" fill-rule="nonzero"/><path fill="#ff9e1d" d="M 283.101562 52.984375 L 283.101562 53.132812 C 283.101562 54.929688 283.847656 56.734375 285.121094 58.019531 C 286.40625 59.347656 288.226562 60.15625 290.101562 60.179688 C 291.96875 60.222656 293.867188 59.492188 295.230469 58.167969 C 296.585938 56.839844 297.382812 54.964844 297.394531 53.058594 C 297.390625 51.144531 296.585938 49.265625 295.230469 47.941406 C 293.867188 46.613281 291.96875 45.886719 290.101562 45.929688 C 288.226562 45.957031 286.40625 46.761719 285.121094 48.089844 C 283.847656 49.375 283.101562 51.179688 283.101562 52.984375 " fill-opacity="1" fill-rule="nonzero"/><path fill="#ff9e1d" d="M 194.003906 56.773438 C 194.351562 54.441406 196.347656 52.644531 198.78125 52.644531 L 200.835938 52.644531 C 203.269531 52.644531 205.265625 54.441406 205.613281 56.773438 L 194.003906 56.773438 " fill-opacity="1" fill-rule="nonzero"/><path fill="#ff9e1d" d="M 205.457031 58.882812 C 204.855469 60.867188 203.023438 62.324219 200.835938 62.324219 L 198.78125 62.324219 C 196.59375 62.324219 194.765625 60.867188 194.160156 58.882812 L 205.457031 58.882812 " fill-opacity="1" fill-rule="nonzero"/><path fill="#ffcc29" d="M 218.292969 6.664062 L 221.148438 44.132812 L 207.066406 44.132812 L 211.632812 4.789062 L 218.292969 6.664062 " fill-opacity="1" fill-rule="nonzero"/><g clip-path="url(#22d42511ec)"><path fill="#484a49" d="M 31.039062 110.796875 C 31.039062 128.957031 45.792969 143.675781 63.996094 143.675781 C 82.195312 143.675781 96.953125 128.957031 96.953125 110.796875 C 96.953125 92.636719 82.195312 77.917969 63.996094 77.917969 C 45.792969 77.917969 31.039062 92.636719 31.039062 110.796875 " fill-opacity="1" fill-rule="nonzero"/></g><path fill="#8a8e8f" d="M 42.554688 110.796875 C 42.554688 122.609375 52.152344 132.1875 63.996094 132.1875 C 75.835938 132.1875 85.4375 122.609375 85.4375 110.796875 C 85.4375 98.980469 75.835938 89.402344 63.996094 89.402344 C 52.152344 89.402344 42.554688 98.980469 42.554688 110.796875 " fill-opacity="1" fill-rule="nonzero"/><path fill="#484a49" d="M 44.226562 110.796875 C 44.226562 121.691406 53.078125 130.523438 63.996094 130.523438 C 74.914062 130.523438 83.765625 121.691406 83.765625 110.796875 C 83.765625 99.902344 74.914062 91.070312 63.996094 91.070312 C 53.078125 91.070312 44.226562 99.902344 44.226562 110.796875 " fill-opacity="1" fill-rule="nonzero"/><path fill="#8a8e8f" d="M 59.382812 111.898438 C 57.527344 109.464844 47.289062 112.523438 47.289062 112.523438 L 47.261719 109.667969 C 50.773438 108.902344 51.917969 108.324219 52.375 106.914062 C 52.835938 105.503906 52.25 104.363281 49.859375 101.691406 L 51.5625 99.394531 C 51.5625 99.394531 58.046875 107.871094 60.980469 106.992188 L 60.972656 107.023438 C 61.117188 106.902344 61.257812 106.78125 61.417969 106.679688 L 61.414062 106.679688 C 63.15625 104.167969 57.078125 95.394531 57.078125 95.394531 L 59.792969 94.488281 C 61.605469 97.585938 62.507812 98.492188 63.996094 98.492188 C 65.484375 98.492188 66.386719 97.585938 68.195312 94.488281 L 70.914062 95.394531 C 70.914062 95.394531 64.835938 104.167969 66.582031 106.679688 L 66.574219 106.679688 C 66.734375 106.78125 66.878906 106.902344 67.023438 107.023438 L 67.011719 106.992188 C 69.949219 107.871094 76.429688 99.394531 76.429688 99.394531 L 78.132812 101.6875 C 75.742188 104.363281 75.15625 105.503906 75.617188 106.914062 C 76.074219 108.324219 77.21875 108.902344 80.730469 109.664062 L 80.703125 112.523438 C 80.703125 112.523438 70.46875 109.464844 68.609375 111.898438 L 68.601562 111.875 C 68.554688 112.058594 68.503906 112.238281 68.4375 112.410156 L 68.445312 112.402344 C 68.515625 115.460938 78.597656 118.992188 78.597656 118.992188 L 76.9375 121.316406 C 73.648438 119.875 72.382812 119.671875 71.179688 120.542969 C 69.972656 121.414062 69.777344 122.679688 70.140625 126.246094 L 67.40625 127.105469 C 67.40625 127.105469 67.15625 116.445312 64.265625 115.433594 L 64.289062 115.417969 C 64.1875 115.421875 64.097656 115.445312 63.996094 115.445312 C 63.898438 115.445312 63.804688 115.421875 63.707031 115.417969 L 63.730469 115.433594 C 60.835938 116.445312 60.585938 127.105469 60.585938 127.105469 L 57.859375 126.246094 C 58.214844 122.679688 58.019531 121.414062 56.816406 120.542969 C 55.613281 119.671875 54.34375 119.875 51.058594 121.320312 L 49.394531 118.992188 C 49.394531 118.992188 59.480469 115.460938 59.546875 112.402344 L 59.554688 112.410156 C 59.488281 112.238281 59.4375 112.058594 59.390625 111.878906 L 59.382812 111.898438 " fill-opacity="1" fill-rule="nonzero"/><g fill="#424242" fill-opacity="1"><g transform="translate(83.905444, 75.196212)"><g><path d="M 26.980469 2.023438 C 26.980469 4.078125 26.074219 4.777344 24.4375 4.777344 C 20.425781 4.777344 17.152344 1.777344 11.886719 1.777344 C 11.609375 1.777344 11.226562 1.8125 10.773438 1.882812 C 12.480469 1.394531 14.953125 0.871094 16.765625 0.523438 C 24.191406 0.140625 28.898438 -3.519531 28.898438 -12.097656 C 28.898438 -20.636719 23.632812 -24.542969 15.40625 -24.542969 C 7.179688 -24.542969 1.917969 -20.636719 1.917969 -12.097656 C 1.917969 -3.136719 7.042969 0.453125 15.058594 0.558594 C 9.550781 1.570312 6.273438 2.824219 6.273438 5.71875 C 6.273438 7.355469 7.285156 8.261719 9.0625 8.261719 C 10.980469 8.261719 12.339844 7.355469 12.339844 5.785156 C 12.339844 2.996094 9.65625 3.695312 9.65625 2.683594 C 9.65625 2.371094 9.96875 2.089844 10.703125 2.089844 C 14.152344 2.089844 14.464844 10.179688 21.542969 10.179688 C 24.609375 10.179688 27.992188 8.609375 27.226562 2.023438 Z M 9.863281 -11.992188 C 9.863281 -20.496094 10.738281 -24.226562 15.40625 -24.226562 C 20.078125 -24.226562 20.949219 -20.496094 20.949219 -11.992188 C 20.949219 -2.929688 20.078125 0.242188 15.40625 0.242188 C 10.738281 0.242188 9.863281 -2.929688 9.863281 -11.992188 Z M 9.863281 -11.992188 "/></g></g></g><g fill="#424242" fill-opacity="1"><g transform="translate(124.606823, 75.196212)"><g><path d="M 32 -23.984375 L 17.535156 -23.984375 L 17.535156 -23.738281 L 18.09375 -23.738281 C 19.972656 -23.738281 20.601562 -23.042969 20.601562 -19.765625 L 20.601562 -7.808594 C 20.601562 -2.578125 19.941406 0.242188 16.3125 0.242188 C 12.6875 0.242188 12.027344 -2.578125 12.027344 -7.808594 L 12.027344 -19.765625 C 12.027344 -23.042969 12.652344 -23.738281 14.535156 -23.738281 L 15.09375 -23.738281 L 15.09375 -23.984375 L 0.628906 -23.984375 L 0.628906 -23.738281 L 1.183594 -23.738281 C 3.589844 -23.738281 4.390625 -23.042969 4.390625 -19.765625 L 4.390625 -10.703125 C 4.390625 -2.648438 8.332031 0.558594 16.3125 0.558594 C 24.296875 0.558594 28.234375 -2.648438 28.234375 -10.703125 L 28.234375 -19.765625 C 28.234375 -23.042969 29.039062 -23.738281 31.441406 -23.738281 L 32 -23.738281 Z M 32 -23.984375 "/></g></g></g><g fill="#424242" fill-opacity="1"><g transform="translate(167.119948, 75.196212)"><g><path d="M 15.722656 -23.738281 L 16.28125 -23.738281 L 16.28125 -23.984375 L 1.117188 -23.984375 L 1.117188 -23.738281 L 1.671875 -23.738281 C 4.078125 -23.738281 4.878906 -23.042969 4.878906 -19.765625 L 4.878906 -4.21875 C 4.878906 -0.941406 4.078125 -0.242188 1.671875 -0.242188 L 1.117188 -0.242188 L 1.117188 0 L 16.28125 0 L 16.28125 -0.242188 L 15.722656 -0.242188 C 13.316406 -0.242188 12.515625 -0.941406 12.515625 -4.21875 L 12.515625 -19.765625 C 12.515625 -23.042969 13.316406 -23.738281 15.722656 -23.738281 Z M 15.722656 -23.738281 "/></g></g></g><g fill="#424242" fill-opacity="1"><g transform="translate(194.407343, 75.196212)"><g><path d="M 29.421875 -12.304688 L 15.652344 -12.304688 L 15.652344 -12.0625 L 16.210938 -12.0625 C 18.371094 -12.0625 19.066406 -11.363281 19.066406 -8.085938 L 19.066406 -0.382812 C 18.09375 0 17.082031 0.242188 15.722656 0.242188 C 10.738281 0.242188 9.863281 -2.929688 9.863281 -11.992188 C 9.863281 -20.496094 11.015625 -24.226562 15.894531 -24.226562 C 19.277344 -24.226562 22.273438 -20.425781 24.019531 -13.699219 L 24.226562 -13.699219 L 25.238281 -24.15625 L 25.027344 -24.15625 C 24.820312 -23.425781 24.296875 -23.320312 23.738281 -23.320312 C 22.171875 -23.320312 19.066406 -24.542969 15.894531 -24.542969 C 8.050781 -24.542969 1.917969 -20.636719 1.917969 -12.097656 C 1.917969 -2.996094 7.214844 0.558594 15.722656 0.558594 C 19.242188 0.558594 22.101562 -1.429688 24.226562 -1.429688 C 25.378906 -1.429688 25.933594 -1.046875 26.492188 0 L 26.703125 0 L 26.703125 -9.132812 C 26.703125 -11.539062 27.226562 -12.0625 28.863281 -12.0625 L 29.421875 -12.0625 Z M 29.421875 -12.304688 "/></g></g></g><g fill="#424242" fill-opacity="1"><g transform="translate(234.20284, 75.196212)"><g><path d="M 15.40625 0.558594 C 7.179688 0.558594 1.917969 -2.996094 1.917969 -12.097656 C 1.917969 -20.636719 7.179688 -24.542969 15.40625 -24.542969 C 23.632812 -24.542969 28.898438 -20.636719 28.898438 -12.097656 C 28.898438 -2.996094 23.632812 0.558594 15.40625 0.558594 Z M 15.40625 -24.226562 C 10.738281 -24.226562 9.863281 -20.496094 9.863281 -11.992188 C 9.863281 -2.929688 10.738281 0.242188 15.40625 0.242188 C 20.078125 0.242188 20.949219 -2.929688 20.949219 -11.992188 C 20.949219 -20.496094 20.078125 -24.226562 15.40625 -24.226562 Z M 15.40625 -24.226562 "/></g></g></g></svg>